<svg width="69" height="501" viewBox="0 0 69 501" fill="none" xmlns="http://www.w3.org/2000/svg">
<path d="M68.9422 472.265H17.1565L17.1565 501H-0.00012207L-0.00012207 421.187H17.1565L17.1565 449.921H68.9422L68.9422 472.265Z" fill="#F82B43"/>
<path d="M68.9422 383.904C68.9422 395.985 66.1153 404.894 60.4616 410.631C54.8079 416.367 46.1619 419.232 34.5161 419.232C22.8704 419.232 14.2094 416.367 8.52557 410.631C2.84177 404.894 -0.00012207 395.985 -0.00012207 383.904L-0.00012207 366.191C-0.00012207 354.109 2.84177 345.2 8.52557 339.463C14.2094 333.734 22.8779 330.862 34.5161 330.862C46.1619 330.862 54.8079 333.727 60.4616 339.463C66.1153 345.2 68.9422 354.109 68.9422 366.191L68.9422 383.904ZM52.3945 371.649C52.3945 367.807 51.9735 364.694 51.1164 362.326C50.2669 359.958 49.0414 358.101 47.44 356.763C45.8386 355.424 43.9515 354.515 41.7712 354.034C39.591 353.552 37.1776 353.312 34.5161 353.312C31.8547 353.312 29.4413 353.552 27.261 354.034C25.0807 354.515 23.2087 355.424 21.6449 356.763C20.0811 358.101 18.8707 359.958 18.0211 362.326C17.1715 364.694 16.743 367.799 16.743 371.649V379.475C16.743 383.046 17.1715 385.964 18.0211 388.227C18.8707 390.49 20.0811 392.264 21.6449 393.527C23.2087 394.797 25.0807 395.655 27.261 396.098C29.4413 396.549 31.8547 396.767 34.5161 396.767C37.1776 396.767 39.591 396.542 41.7712 396.098C43.9515 395.655 45.8386 394.797 47.44 393.527C49.0414 392.256 50.2669 390.49 51.1164 388.227C51.966 385.964 52.3945 383.046 52.3945 379.475V371.649Z" fill="#F82B43"/>
<path d="M68.9422 243.944H24.5094C22.3291 243.944 20.6149 244.681 19.3518 246.162C18.0963 247.636 17.4648 249.681 17.4648 252.289L17.4648 262.484H68.9422L68.9422 284.212H17.4648L17.4648 302.338H68.9422V324.277H-0.00012207L-0.00012207 247.748C-0.00012207 239.238 1.77418 232.847 5.30776 228.592C8.84885 224.337 13.9913 222.209 20.7277 222.209H68.9422V243.944Z" fill="#F82B43"/>
<path d="M68.9422 181.114C68.9422 193.196 66.1153 202.105 60.4616 207.842C54.8079 213.578 46.1619 216.443 34.5161 216.443C22.8704 216.443 14.2094 213.578 8.52557 207.842C2.84177 202.113 -0.00012207 193.204 -0.00012207 181.114L-0.00012207 163.401C-0.00012207 151.32 2.84177 142.411 8.52557 136.674C14.2094 130.945 22.8779 128.073 34.5161 128.073C46.1619 128.073 54.8079 130.938 60.4616 136.674C66.1153 142.411 68.9422 151.32 68.9422 163.401L68.9422 181.114ZM52.3945 168.86C52.3945 165.018 51.9735 161.905 51.1164 159.537C50.2669 157.169 49.0414 155.312 47.44 153.974C45.8386 152.635 43.9515 151.726 41.7712 151.244C39.591 150.763 37.1776 150.523 34.5161 150.523C31.8547 150.523 29.4413 150.763 27.261 151.244C25.0807 151.726 23.2087 152.635 21.6449 153.974C20.0811 155.312 18.8707 157.169 18.0211 159.537C17.1715 161.905 16.743 165.01 16.743 168.86V176.686C16.743 180.257 17.1715 183.174 18.0211 185.437C18.8707 187.7 20.0811 189.475 21.6449 190.738C23.2087 192.008 25.0807 192.865 27.261 193.317C29.4413 193.76 31.8547 193.986 34.5161 193.986C37.1776 193.986 39.591 193.76 41.7712 193.317C43.9515 192.873 45.8386 192.016 47.44 190.738C49.0414 189.467 50.2669 187.7 51.1164 185.437C51.966 183.174 52.3945 180.257 52.3945 176.686V168.86Z" fill="#F82B43"/>
<path d="M68.9422 121.487L-0.00012207 121.487L-0.00012207 99.2402L68.9422 99.2402V121.487Z" fill="#F82B43"/>
<path d="M68.9424 91.3085L0.00012207 91.3085L0.00012207 69.062H50.6581L50.6581 23.2383L68.9424 23.2383L68.9424 91.3085Z" fill="#F82B43"/>
<path d="M5.46645 19.223L5.46645 22.9295H3.72974L3.72974 13.667H5.47397L5.47397 17.3735H15.9318L15.9318 19.2305H5.46645V19.223Z" fill="#F82B43"/>
<path d="M3.72974 11.9089V10.3451L13.12 5.95445L3.72974 1.56379L3.72974 0L15.9243 0V1.85701L8.37601 1.85701L15.9243 5.36803L15.9243 6.54087L8.37601 10.0519L15.9243 10.0519V11.9089L3.72974 11.9089Z" fill="#F82B43"/>
</svg>
