<?xml version="1.0" encoding="utf-8"?>
<!-- Generator: Adobe Illustrator 25.0.1, SVG Export Plug-In . SVG Version: 6.00 Build 0)  -->
<svg version="1.1" id="Layer_1" xmlns="http://www.w3.org/2000/svg" xmlns:xlink="http://www.w3.org/1999/xlink" x="0px" y="0px"
	 viewBox="0 0 1920 1080" style="enable-background:new 0 0 1920 1080;" xml:space="preserve">
<style type="text/css">
	.st0{fill:#F82B43;}
</style>
<g>
	<g>
		<path class="st0" d="M374.1,593.5V455h-76.9v-45.9h213.5V455h-76.9v138.5H374.1z"/>
		<path class="st0" d="M610.4,593.5c-32.3,0-56.2-7.6-71.5-22.7c-15.3-15.1-23-38.2-23-69.4s7.7-54.3,23-69.5
			c15.3-15.2,39.2-22.8,71.5-22.8h47.4c32.3,0,56.2,7.6,71.5,22.8c15.3,15.2,23,38.4,23,69.5c0,31.1-7.7,54.3-23,69.4
			c-15.3,15.1-39.2,22.7-71.5,22.7H610.4z M643.2,549.2c10.3,0,18.6-1.1,24.9-3.4c6.3-2.3,11.3-5.5,14.9-9.8c3.6-4.3,6-9.3,7.3-15.2
			c1.3-5.8,1.9-12.3,1.9-19.4c0-7.1-0.7-13.6-1.9-19.4c-1.3-5.8-3.7-10.8-7.3-15c-3.6-4.2-8.5-7.4-14.9-9.7s-14.7-3.4-24.9-3.4
			h-20.9c-9.5,0-17.3,1.1-23.4,3.4c-6.1,2.3-10.8,5.5-14.2,9.7s-5.7,9.2-6.9,15s-1.8,12.3-1.8,19.4c0,7.1,0.6,13.6,1.8,19.4
			c1.2,5.8,3.5,10.9,6.9,15.2c3.4,4.3,8.1,7.6,14.2,9.8c6.1,2.3,13.9,3.4,23.4,3.4H643.2z"/>
		<path class="st0" d="M984.8,593.5V474.7c0-5.8-2-10.4-5.9-13.8c-4-3.4-9.4-5-16.4-5h-27.3v137.7h-58.1V455.8h-48.5v137.7h-58.7
			V409.1h204.7c22.8,0,39.8,4.7,51.2,14.2c11.4,9.5,17.1,23.2,17.1,41.2v128.9L984.8,593.5L984.8,593.5z"/>
		<path class="st0" d="M1152.8,593.5c-32.3,0-56.2-7.6-71.5-22.7c-15.3-15.1-23-38.2-23-69.4s7.7-54.3,23-69.5
			c15.3-15.2,39.2-22.8,71.5-22.8h47.4c32.3,0,56.2,7.6,71.5,22.8c15.3,15.2,23,38.4,23,69.5c0,31.1-7.7,54.3-23,69.4
			c-15.3,15.1-39.2,22.7-71.5,22.7H1152.8z M1185.6,549.2c10.3,0,18.6-1.1,24.9-3.4c6.3-2.3,11.3-5.5,14.9-9.8
			c3.6-4.3,6-9.3,7.3-15.2c1.3-5.8,1.9-12.3,1.9-19.4c0-7.1-0.7-13.6-1.9-19.4c-1.3-5.8-3.7-10.8-7.3-15c-3.6-4.2-8.5-7.4-14.9-9.7
			s-14.7-3.4-24.9-3.4h-20.9c-9.6,0-17.3,1.1-23.4,3.4c-6.1,2.3-10.8,5.5-14.2,9.7c-3.4,4.2-5.7,9.2-6.9,15
			c-1.2,5.8-1.8,12.3-1.8,19.4c0,7.1,0.6,13.6,1.8,19.4c1.2,5.8,3.5,10.9,6.9,15.2c3.4,4.3,8.1,7.6,14.2,9.8
			c6.1,2.3,13.9,3.4,23.4,3.4H1185.6z"/>
		<path class="st0" d="M1312.3,593.5V409.1h59.5v184.4L1312.3,593.5L1312.3,593.5z"/>
		<path class="st0" d="M1393,593.5V409.1h59.5v135.5h122.6v48.9H1393z"/>
	</g>
	<g>
		<path class="st0" d="M1585.8,423.7h-9.9v-4.7h24.8v4.7h-9.9v28h-5V423.7z"/>
		<path class="st0" d="M1605.4,419.1h4.2l11.8,25.1l11.8-25.1h4.2v32.6h-5v-20.2l-9.4,20.2h-3.1l-9.4-20.2v20.2h-5L1605.4,419.1
			L1605.4,419.1z"/>
	</g>
</g>
</svg>
